<svg width="26" height="67" viewBox="0 0 26 67" fill="none" xmlns="http://www.w3.org/2000/svg">
<path d="M23.6782 52.1212C18.8578 35.5677 13.524 18.3592 6.80665 1.96379C6.69506 1.76054 6.49421 1.80571 6.40494 1.82829C6.33799 1.85088 6.29336 1.87346 6.27104 1.87346C6.27104 1.89604 6.27104 1.91863 6.29336 1.96379C11.4932 14.6556 15.8673 27.8216 19.8174 40.807C15.4433 27.2344 10.6675 13.7522 4.99898 0.721713C4.39643 -0.633282 2.20937 0.0893822 2.81193 1.48954C9.75248 17.4107 15.3317 34.0094 20.5315 50.6081C20.286 50.5404 20.0406 50.4952 19.7951 50.4274C14.1935 33.8965 8.05639 16.7107 0.513288 0.428131C0.401704 0.202298 0.200852 0.270048 0.111584 0.292631C0.0446338 0.315215 0 0.337798 0 0.337798C0 0.337798 0 0.360381 0.0223169 0.428131C7.54311 16.7107 13.7026 33.8513 19.2818 50.3597C17.184 50.0435 14.8184 50.2468 12.4305 51.0824C6.51653 53.1148 2.83424 58.1509 4.24021 62.3062C5.62385 66.4615 11.5825 68.1779 17.4964 66.1454C21.2903 64.8356 24.1469 62.3062 25.352 59.5737C25.3743 59.6414 25.3966 59.7092 25.4189 59.7769C25.4412 59.8221 25.4636 59.8672 25.4636 59.8898C25.4859 59.9124 25.5751 59.9124 25.6644 59.8898C25.9099 59.7995 25.8653 59.664 25.8429 59.5962C25.776 59.3478 25.709 59.0994 25.6421 58.8736C26.0884 57.5412 26.1331 56.2088 25.6867 54.9215C25.3073 53.7923 24.6155 52.8664 23.6782 52.1212Z" fill="#C0DBFF"/>
</svg>
