<svg width="270" height="164" viewBox="0 0 270 164" fill="none" xmlns="http://www.w3.org/2000/svg">
<path d="M123.744 163.45C131.708 139.016 132.859 94.0763 132.187 76.6172L135.463 80.5297C136.135 97.9889 135.488 139.016 127.524 163.45H123.744Z" fill="#C0DBFF"/>
<path d="M166.842 91.7616C170.973 98.256 171.264 104.846 166.998 111.348C164.132 115.715 159.896 118.197 154.693 118.744C150.026 119.239 145.969 117.525 142.492 114.533C137.765 110.462 135.644 104.994 134.401 99.0982C134.177 98.0491 134.021 96.9852 133.619 95.936C133.217 97.6649 132.86 99.4012 132.398 101.108C131.185 105.666 129.42 109.989 126.398 113.698C121.976 119.128 116.177 120.473 109.642 117.968C97.6938 113.395 96.4656 100.436 101.587 92.9881C101.691 92.8329 101.758 92.6556 101.84 92.4857C102.034 92.3748 102.302 92.1532 102.168 92.0054C101.967 91.7912 101.773 92.0793 101.617 92.2418C96.2273 95.6553 90.5177 96.468 84.6146 93.8525C78.6147 91.2001 75.0936 86.4641 74.446 79.992C73.91 74.6576 76.2177 70.2098 80.0886 66.619C84.6518 62.3855 90.354 60.6418 96.4432 59.6887C96.2125 59.1716 95.736 59.3193 95.3787 59.2602C90.4433 58.4475 85.7461 57.0068 81.6295 54.0662C78.1457 51.5763 75.6966 48.3107 74.7736 44.1141C73.389 37.8487 75.6966 32.736 80.3417 28.6502C85.9992 23.6705 94.0537 23.109 100.552 26.9583C100.917 27.1726 101.289 27.3942 101.654 27.6085C101.781 27.6898 101.9 27.8819 102.041 27.6602C102.071 27.6159 101.937 27.4755 101.877 27.3794C98.8402 22.6657 97.999 17.6638 99.5176 12.2038C101.959 3.36728 113.326 -0.910583 119.356 0.74441C122.825 1.69751 125.49 3.71453 127.634 6.48516C131.274 11.1768 133.046 16.6368 134.103 22.3627C134.371 23.7961 134.542 25.2516 134.802 26.9879C135.271 24.365 135.614 22.0155 136.12 19.6955C137.14 15.0483 138.733 10.6005 141.532 6.67726C144.048 3.15301 147.212 0.589254 151.73 0.0720688C153.718 -0.15697 155.624 0.182894 157.499 0.766575C165.234 3.1604 169.395 8.19926 169.983 16.0826C170.273 19.9911 169.023 23.5375 166.916 26.8032C166.872 26.8992 166.834 26.9879 166.79 27.0839C166.909 27.0765 167.02 27.0691 167.139 27.0617C172.529 23.6483 178.231 22.8282 184.134 25.4437C190.298 28.1774 193.812 33.0463 194.355 39.7106C194.742 44.4318 192.747 48.488 189.501 51.8718C185.176 56.3861 179.579 58.3884 173.579 59.5262C172.596 59.7109 171.606 59.8365 170.623 60.0064C170.549 60.0212 170.489 60.1173 170.333 60.2503C174.375 60.9078 178.253 61.8831 181.961 63.4716C185.087 64.8163 188.005 66.4934 190.365 68.9759C193.774 72.5593 194.988 76.7632 193.581 81.5213C191.027 90.1509 185.586 94.4805 176.839 94.6283C173.266 94.6874 170.043 93.3944 167.05 91.5178C166.916 91.2887 166.745 91.2296 166.514 91.3922C166.633 91.5252 166.738 91.6434 166.842 91.7616ZM134.11 80.8047C134.594 78.8541 135.056 76.9036 135.554 74.9531C137.594 66.9663 142.559 62.0456 150.852 60.6271C152.534 60.3389 154.217 60.036 156.241 59.674C152.437 59.0016 149.05 58.1076 145.82 56.6817C141.74 54.8789 138.889 51.9605 137.274 47.8083C136.068 44.6978 135.391 41.469 134.981 38.1812C134.944 37.9079 135.108 37.4719 134.468 37.4498C134.393 39.7697 133.82 41.9936 133.232 44.2249C131.229 51.7536 126.659 56.6152 118.768 58.1889C116.401 58.6618 114.026 59.0977 111.659 59.6444C115.552 60.3685 119.349 61.2994 122.989 62.851C127.515 64.7793 130.522 68.0154 132.108 72.6184C133.031 75.2708 133.634 77.9823 134.11 80.8047Z" fill="#C0DBFF"/>
<path d="M29.3164 163.45C34.0448 148.942 34.7281 122.259 34.3291 111.893L36.2743 114.216C36.6733 124.583 36.2892 148.942 31.5609 163.45H29.3164Z" fill="#C0DBFF"/>
<path d="M54.9056 120.885C57.3587 124.741 57.531 128.654 54.9984 132.515C53.2968 135.107 50.7818 136.581 47.6923 136.906C44.921 137.2 42.5122 136.182 40.4481 134.405C37.6414 131.988 36.3817 128.742 35.6436 125.241C35.511 124.618 35.4182 123.987 35.1795 123.364C34.9409 124.39 34.7287 125.421 34.4547 126.434C33.7342 129.141 32.6867 131.707 30.8922 133.91C28.2668 137.134 24.8237 137.932 20.943 136.445C13.849 133.73 13.1197 126.035 16.1606 121.613C16.2225 121.521 16.2623 121.416 16.3109 121.315C16.4258 121.249 16.585 121.118 16.5054 121.03C16.3861 120.903 16.2711 121.074 16.1783 121.17C12.9783 123.197 9.58824 123.679 6.08324 122.127C2.52079 120.552 0.430176 117.74 0.0456434 113.897C-0.27259 110.73 1.09758 108.089 3.39594 105.957C6.10534 103.443 9.491 102.408 13.1065 101.842C12.9695 101.535 12.6866 101.622 12.4744 101.587C9.54404 101.105 6.75507 100.249 4.31086 98.5034C2.24234 97.025 0.788189 95.0861 0.24012 92.5943C-0.581984 88.8743 0.788189 85.8386 3.54621 83.4127C6.90535 80.456 11.6877 80.1226 15.5463 82.4081C15.7629 82.5353 15.9839 82.6669 16.2004 82.7941C16.2756 82.8424 16.3463 82.9565 16.4303 82.8249C16.4479 82.7985 16.3684 82.7152 16.333 82.6582C14.5297 79.8594 14.0302 76.8895 14.9319 73.6476C16.3816 68.4009 23.1309 65.861 26.711 66.8436C28.7707 67.4095 30.353 68.6071 31.6259 70.2522C33.7873 73.0378 34.8392 76.2797 35.4668 79.6795C35.6259 80.5305 35.7276 81.3947 35.8823 82.4257C36.1608 80.8683 36.3641 79.4733 36.6646 78.0958C37.2701 75.3365 38.216 72.6956 39.8779 70.3662C41.3718 68.2737 43.2503 66.7515 45.9332 66.4444C47.1133 66.3084 48.2448 66.5102 49.3586 66.8568C53.9509 68.2781 56.4216 71.2699 56.7708 75.9507C56.9432 78.2713 56.2006 80.377 54.9498 82.316C54.9233 82.373 54.9012 82.4257 54.8747 82.4827C54.9454 82.4783 55.0117 82.4739 55.0824 82.4695C58.2824 80.4428 61.6681 79.9559 65.1731 81.5088C68.8327 83.1319 70.9189 86.0229 71.2416 89.9798C71.4714 92.783 70.2869 95.1913 68.3598 97.2005C65.7919 99.8809 62.4681 101.07 58.9056 101.745C58.3222 101.855 57.7344 101.93 57.1509 102.03C57.1067 102.039 57.0714 102.096 56.9785 102.175C59.3786 102.566 61.6813 103.145 63.8825 104.088C65.7388 104.886 67.4714 105.882 68.8725 107.356C70.8969 109.484 71.6173 111.98 70.7819 114.805C69.2659 119.929 66.0349 122.499 60.8415 122.587C58.72 122.622 56.8062 121.855 55.0294 120.74C54.9498 120.604 54.8481 120.569 54.7111 120.666C54.7818 120.745 54.8437 120.815 54.9056 120.885ZM35.4712 114.379C35.7585 113.221 36.0326 112.063 36.3287 110.905C37.5398 106.163 40.4878 103.241 45.4116 102.399C46.4105 102.228 47.4094 102.048 48.6117 101.833C46.3531 101.434 44.342 100.903 42.4238 100.056C40.0017 98.986 38.3088 97.2532 37.3497 94.7878C36.6337 92.9409 36.2315 91.0239 35.9884 89.0717C35.9663 88.9094 36.0635 88.6506 35.6834 88.6374C35.6392 90.0149 35.2989 91.3353 34.9497 92.6601C33.7607 97.1303 31.0469 100.017 26.3618 100.951C24.9563 101.232 23.5463 101.491 22.1408 101.815C24.4524 102.245 26.7066 102.798 28.8679 103.719C31.5552 104.864 33.3408 106.786 34.2823 109.519C34.8304 111.094 35.1884 112.704 35.4712 114.379Z" fill="#C0DBFF"/>
<path d="M227.125 163.45C231.853 148.942 232.537 122.259 232.138 111.893L234.083 114.216C234.482 124.583 234.098 148.942 229.369 163.45H227.125Z" fill="#C0DBFF"/>
<path d="M252.714 120.885C255.167 124.741 255.34 128.654 252.807 132.515C251.105 135.107 248.59 136.581 245.501 136.906C242.73 137.2 240.321 136.182 238.257 134.405C235.45 131.988 234.19 128.742 233.452 125.241C233.32 124.618 233.227 123.987 232.988 123.364C232.749 124.39 232.537 125.421 232.263 126.434C231.543 129.141 230.495 131.707 228.701 133.91C226.075 137.134 222.632 137.932 218.752 136.445C211.658 133.73 210.928 126.035 213.969 121.613C214.031 121.521 214.071 121.416 214.12 121.315C214.234 121.249 214.394 121.118 214.314 121.03C214.195 120.903 214.08 121.074 213.987 121.17C210.787 123.197 207.397 123.679 203.892 122.127C200.329 120.552 198.239 117.74 197.854 113.897C197.536 110.73 198.906 108.089 201.205 105.957C203.914 103.443 207.3 102.408 210.915 101.842C210.778 101.535 210.495 101.622 210.283 101.587C207.353 101.105 204.564 100.249 202.119 98.5034C200.051 97.025 198.597 95.0861 198.049 92.5943C197.227 88.8743 198.597 85.8386 201.355 83.4127C204.714 80.456 209.496 80.1226 213.355 82.4081C213.571 82.5353 213.792 82.6669 214.009 82.7941C214.084 82.8424 214.155 82.9565 214.239 82.8249C214.257 82.7985 214.177 82.7152 214.142 82.6582C212.338 79.8594 211.839 76.8895 212.741 73.6476C214.19 68.4009 220.939 65.861 224.52 66.8436C226.579 67.4095 228.162 68.6071 229.435 70.2522C231.596 73.0378 232.648 76.2797 233.275 79.6795C233.435 80.5305 233.536 81.3947 233.691 82.4257C233.969 80.8683 234.173 79.4733 234.473 78.0958C235.079 75.3365 236.025 72.6956 237.686 70.3662C239.18 68.2737 241.059 66.7515 243.742 66.4444C244.922 66.3084 246.053 66.5102 247.167 66.8568C251.759 68.2781 254.23 71.2699 254.579 75.9507C254.752 78.2713 254.009 80.377 252.758 82.316C252.732 82.373 252.71 82.4257 252.683 82.4827C252.754 82.4783 252.82 82.4739 252.891 82.4695C256.091 80.4428 259.477 79.9559 262.982 81.5088C266.641 83.1319 268.728 86.0229 269.05 89.9798C269.28 92.783 268.095 95.1913 266.168 97.2005C263.6 99.8809 260.277 101.07 256.714 101.745C256.131 101.855 255.543 101.93 254.96 102.03C254.915 102.039 254.88 102.096 254.787 102.175C257.187 102.566 259.49 103.145 261.691 104.088C263.547 104.886 265.28 105.882 266.681 107.356C268.705 109.484 269.426 111.98 268.591 114.805C267.075 119.929 263.844 122.499 258.65 122.587C256.529 122.622 254.615 121.855 252.838 120.74C252.758 120.604 252.657 120.569 252.52 120.666C252.59 120.745 252.652 120.815 252.714 120.885ZM233.28 114.379C233.567 113.221 233.841 112.063 234.137 110.905C235.348 106.163 238.296 103.241 243.22 102.399C244.219 102.228 245.218 102.048 246.42 101.833C244.162 101.434 242.151 100.903 240.232 100.056C237.81 98.986 236.117 97.2532 235.158 94.7878C234.442 92.9409 234.04 91.0239 233.797 89.0717C233.775 88.9094 233.872 88.6506 233.492 88.6374C233.448 90.0149 233.107 91.3353 232.758 92.6601C231.569 97.1303 228.856 100.017 224.17 100.951C222.765 101.232 221.355 101.491 219.949 101.815C222.261 102.245 224.515 102.798 226.676 103.719C229.364 104.864 231.149 106.786 232.091 109.519C232.639 111.094 232.997 112.704 233.28 114.379Z" fill="#C0DBFF"/>
</svg>
