<?xml version="1.0" encoding="UTF-8"?>
<svg data-bbox="-0.162 -0.165 32.162 32.165" xmlns="http://www.w3.org/2000/svg" viewBox="0 0 32 32" height="32" width="32" data-type="ugc">
    <g>
        <g clipPath="url(#e0fad489-0959-4791-9b74-f9f440d9572d)">
            <path fill="url(#c6f7213d-fa85-479f-bb0c-b7e71d84d022)" d="M32 16c0-8.837-7.163-16-16-16S0 7.163 0 16s7.163 16 16 16 16-7.163 16-16Z"/>
            <path fill="#ffffff" d="M28.042 5.474c-2.333 4.282-5.632 8.699-9.754 12.82-4.122 4.123-8.539 7.415-12.814 9.748a15.292 15.292 0 0 1-.782-.728A16 16 0 1 1 27.314 4.686c.252.253.495.515.728.788Z" opacity=".1"/>
            <path fill="#ffffff" d="M19.789 7.579h-7.58a4.632 4.632 0 0 0-4.63 4.632v7.579a4.631 4.631 0 0 0 4.63 4.631h7.58a4.632 4.632 0 0 0 4.631-4.631v-7.58a4.632 4.632 0 0 0-4.63-4.63Zm3.157 11.545a3.823 3.823 0 0 1-3.823 3.823h-6.248a3.823 3.823 0 0 1-3.823-3.823v-6.248a3.823 3.823 0 0 1 3.823-3.823h6.248a3.823 3.823 0 0 1 3.823 3.823v6.248Z"/>
            <path fill="#ffffff" d="m19.071 12.96-.04-.04-.034-.034A4.244 4.244 0 0 0 16 11.648 4.32 4.32 0 0 0 11.71 16a4.363 4.363 0 0 0 1.262 3.076 4.25 4.25 0 0 0 3.036 1.263 4.365 4.365 0 0 0 3.063-7.379ZM16 18.855A2.855 2.855 0 1 1 18.814 16 2.835 2.835 0 0 1 16 18.855Z"/>
            <path fill="#ffffff" d="M21.563 11.448a1.028 1.028 0 0 1-1.02 1.036 1.013 1.013 0 0 1-.72-.3 1.038 1.038 0 0 1 .721-1.767c.238 0 .468.083.65.236l.022.02a.643.643 0 0 1 .092.093l.024.026c.15.185.232.417.231.656Z"/>
        </g>
        <defs fill="none">
            <linearGradient gradientUnits="userSpaceOnUse" y2="27.314" x2="27.314" y1="4.686" x1="4.686" id="c6f7213d-fa85-479f-bb0c-b7e71d84d022">
                <stop stop-color="#FAE100"/>
                <stop stop-color="#FCB720" offset=".15"/>
                <stop stop-color="#FF7950" offset=".3"/>
                <stop stop-color="#FF1C74" offset=".5"/>
                <stop stop-color="#6C1CD1" offset="1"/>
            </linearGradient>
            <clipPath id="e0fad489-0959-4791-9b74-f9f440d9572d">
                <path fill="#ffffff" d="M32 0v32H0V0h32z"/>
            </clipPath>
        </defs>
    </g>
</svg>
