<svg width="135" height="131" viewBox="0 0 135 131" fill="none" xmlns="http://www.w3.org/2000/svg">
<path d="M79.0617 98.4083C82.8097 91.4389 83.2633 81.9592 79.1274 75.0651C78.2244 73.0507 76.9945 71.195 75.3009 69.6377C75.1437 69.4836 74.9693 69.3469 74.8295 69.2099C73.224 67.8074 71.0696 66.8251 68.6255 66.2433C69.1354 65.4084 69.6454 64.5736 70.1728 63.7559C72.332 60.2599 74.5606 56.7977 76.8414 53.3524C83.3538 51.1116 89.6919 48.7342 95.683 46.2563L96.2166 46.0264C102.759 43.3358 120.302 36.0964 127.577 27.4162C134.585 21.3494 138.21 14.2256 131.219 7.13396C131.15 7.06547 131.08 6.99697 131.01 6.92847C130.429 5.94844 129.658 4.98752 128.662 4.01145L128.47 3.82308C126.008 1.51232 123.282 0.51817 120.173 0.755335C109.185 1.62098 96.6977 17.786 91.3755 24.6839L91.1538 24.98C86.0704 31.5644 81.0452 38.7534 75.7717 46.9996C75.5846 47.2953 75.3102 47.5054 75 47.6121C69.2815 49.707 63.1818 51.7364 56.3914 53.8415C51.7553 55.2863 42.6626 58.7966 36.148 65.7578C33.7853 67.9936 31.7543 70.5201 30.211 73.3878C28.2309 75.8274 26.566 78.6444 25.494 81.9399C23.3512 88.6346 25.1296 94.9633 30.8277 100.788C32.4183 102.415 34.3019 103.953 36.4094 105.403C36.4964 105.454 36.5662 105.523 36.6361 105.591C36.8632 105.814 37.0223 106.141 37.0602 106.452C37.0798 106.676 37.0649 106.901 36.9979 107.109C36.3999 107.789 35.8019 108.469 35.1521 109.167C30.1433 114.627 24.6519 120.23 18.0321 123.768C16.8284 124.402 15.3655 125.056 13.8976 125.226C13.1536 125.181 12.4085 125.032 11.6787 124.693C11.1575 124.456 10.6872 124.132 10.2679 123.721C9.30739 122.814 8.65477 121.593 8.20891 120.3C7.84748 118.817 7.69281 117.262 7.59417 116.104C7.55486 115.655 7.37798 115.276 7.13302 115.002C7.13265 114.968 7.11482 114.916 7.11446 114.881C7.09553 114.726 7.04274 114.64 7.0078 114.606C6.83309 114.434 6.52189 114.437 6.38394 114.473C5.18571 113.983 3.60093 114.552 3.75597 116.141C4.18288 120.563 5.10154 125.707 9.26003 128.175C9.8515 128.515 10.4936 128.734 11.1178 128.9C9.44602 129.418 7.33929 129.68 5.47861 128.678C4.97449 128.423 4.50386 128.064 4.10166 127.636C1.82933 125.306 1.52616 121.142 1.32708 118.654C1.30816 118.499 1.25539 118.413 1.22044 118.378C1.01079 118.173 0.630795 118.211 0.562002 118.246C0.544892 118.264 0.545252 118.298 0.546344 118.402C0.808385 121.944 1.40312 125.881 3.74533 128.279C4.14717 128.673 4.60069 129.049 5.07058 129.339C6.89813 130.48 9.40452 130.404 12.6935 129.11C15.2188 129.19 17.8708 128.162 20.0208 127.086C28.2939 122.91 35.2001 115.374 41.2456 108.193C42.4278 108.804 43.6617 109.397 44.8949 109.921C52.5884 113.116 60.2262 112.663 66.102 109.079C71.4107 107.472 76.0424 103.97 79.0617 98.4083ZM77.1712 92.9278C76.6704 94.6271 75.9435 96.2075 75.0426 97.6858C77.3736 90.7991 76.9362 82.0888 71.4128 76.4355C71.2555 76.2814 71.0983 76.1273 70.9585 75.9903C69.3694 74.5011 67.231 73.3976 64.7512 72.7124C65.1421 72.0689 65.5155 71.4083 65.8894 70.7823C76.256 71.6689 79.8906 83.513 77.1712 92.9278ZM73.865 69.5649C72.1244 68.4749 70.0934 67.7162 67.9448 67.2872C68.0296 67.1308 68.1315 66.9569 68.2338 66.8176C70.3307 67.2644 72.2252 68.1973 73.865 69.5649ZM58.7054 74.9314C57.8216 76.3923 56.9379 77.8531 56.0541 79.314C55.1696 80.7057 54.2851 82.0974 53.4181 83.5062L53.3835 83.5066C52.9515 83.528 52.5522 83.3762 52.2552 83.0851L52.2377 83.0679C52.0961 82.7581 51.972 82.4653 51.8646 82.1205C50.527 78.2428 52.0885 75.4614 54.6972 73.6037C55.5937 73.3531 56.3701 73.1901 56.9223 73.081C57.4227 72.9898 57.9432 73.1577 58.293 73.5348C58.3629 73.6033 58.4157 73.6893 58.4856 73.7578C58.7316 74.1358 58.7706 74.5504 58.7054 74.9314ZM50.7657 87.7851C50.5786 88.0808 50.4087 88.3591 50.2216 88.6548C49.9497 89.107 49.451 89.3711 48.9323 89.376C48.5174 89.38 48.1006 89.2111 47.8207 88.9025C47.7508 88.834 47.6806 88.7309 47.6278 88.645C47.1179 87.8372 46.6935 86.9421 46.3721 85.9769C45.5317 83.3394 45.7312 80.9341 47.0059 78.8297C47.2439 78.4471 47.4998 78.1161 47.7728 77.7677C47.1361 81.353 48.4199 85.0409 50.7657 87.7851ZM59.3512 67.2827C59.8684 67.1395 60.3339 67.014 60.6961 66.9241C60.9549 66.8697 61.2144 66.8846 61.4572 66.9514C60.7492 67.0446 60.0413 67.1378 59.3512 67.2827ZM61.0338 71.088C60.8981 71.3313 60.7452 71.5921 60.5919 71.8184C60.3685 71.9415 60.1268 71.9784 59.8676 71.9982C59.124 71.988 58.3807 72.0124 57.6207 72.0888C58.74 71.6458 59.8778 71.3238 61.0338 71.088ZM120.199 32.8122C118.104 34.2154 116.093 35.3931 114.598 36.2546L114.1 36.5533C103.891 42.495 92.2052 47.6727 78.3356 52.3871C78.0425 52.4764 77.7488 52.4965 77.454 52.4128C77.5559 52.239 77.6924 52.0647 77.7943 51.8909C85.1155 49.2793 92.3824 46.4434 99.4907 43.3151C103.604 41.5295 112.401 37.7626 120.199 32.8122ZM116.301 30.4978C105.408 37.1377 93.43 42.4738 81.183 46.9307C81.5576 46.3738 81.9496 45.834 82.3241 45.2771C87.8167 43.0634 93.1352 40.7475 98.2113 38.3994L98.7275 38.1524C105.249 35.1335 122.938 26.9072 129.567 17.7317C129.745 18.2141 129.871 18.6798 129.928 19.1461C127.007 24.1537 119.531 28.5304 116.301 30.4978ZM130.505 18.1031C130.397 17.7238 130.272 17.3273 130.112 16.9657C130.504 16.3568 130.86 15.7482 131.131 15.1232C131.158 16.1085 130.927 17.1135 130.505 18.1031ZM129.283 16.9736C126.063 21.5518 120.017 25.448 116.685 27.5893L116.205 27.9051C106.673 34.0306 95.7159 39.5126 82.8017 44.6501C85.7318 40.4724 88.7489 36.3457 91.8883 32.3388C95.5907 27.6177 99.5167 22.7734 103.915 18.4606C106.041 16.7112 108.272 15.0992 110.643 13.6933C117.018 9.88039 123.33 9.94119 127.122 13.7954C127.961 14.652 128.681 15.6998 129.264 16.8873C129.265 16.9219 129.282 16.939 129.283 16.9736ZM130.481 12.5357C130.693 12.9487 130.853 13.3794 130.961 13.7934C130.676 14.6088 130.269 15.408 129.776 16.2254C129.247 15.2276 128.528 14.2489 127.618 13.2547L127.408 13.0492C125.049 10.6337 122.392 9.53516 119.28 9.63402C116.722 9.72759 114.035 10.6524 111.352 12.0958C112.21 11.4651 113.069 10.8691 113.962 10.3072C119.579 6.81277 126.916 5.65344 130.481 12.5357ZM90.9368 27.3682C87.5572 31.5502 84.2999 35.8521 81.1816 40.2218C84.0928 35.8887 86.9035 31.8677 89.7339 28.0713C96.0258 19.6598 102.885 10.9835 111.712 5.19334C117.929 1.12256 124.237 0.872166 128.184 4.56931C128.324 4.70631 128.446 4.86075 128.586 4.99774C115.463 -3.1766 97.6793 19.0561 90.9368 27.3682ZM71.2823 54.1662C71.1461 54.375 71.0275 54.6009 70.8913 54.8097C66.1173 56.2904 61.0663 57.7392 55.5833 59.2093C59.2187 57.9816 62.9252 56.926 66.5785 55.75C68.1465 55.2336 69.7142 54.6826 71.2823 54.1662ZM61.0522 53.1054C62.6202 52.589 64.1883 52.0726 65.7559 51.5216C67.4616 50.9347 69.1497 50.3307 70.8204 49.7096C71.3544 49.5143 71.9262 49.6299 72.3451 50.0063C66.9862 51.7692 61.6258 53.3938 56.316 54.8969C54.9885 55.2727 53.6618 55.7176 52.3355 56.1971C55.2109 55.0458 58.1228 54.067 61.0522 53.1054ZM46.9408 62.7845C50.5228 61.4017 54.2292 60.3461 57.9015 59.3255C59.4874 58.8608 61.0736 58.4307 62.642 57.9489C64.3484 57.4312 66.0718 56.896 67.7782 56.3783C68.3296 56.2001 68.9364 56.35 69.3386 56.7784C69.391 56.8298 69.4434 56.8811 69.4787 56.95C69.5137 56.9842 69.514 57.0188 69.5319 57.0705C68.2572 59.1748 66.9319 61.4007 65.5731 63.7306C65.267 64.2177 64.978 64.6873 64.6894 65.1915C64.3989 65.5228 64.0032 65.7168 63.5712 65.7382C58.9038 65.8519 53.8394 67.6639 51.1812 71.3895C49.8461 72.6817 48.7905 74.248 48.1703 76.104C46.8523 77.3788 45.8662 78.979 45.3854 80.9374C44.6221 83.9879 45.5939 87.6096 47.9055 90.3887C48.3259 90.9034 48.3856 91.6463 48.0285 92.2203C46.2086 95.0907 44.4888 97.6143 42.7846 99.9821C42.6113 99.9491 42.4552 99.8988 42.2812 99.7967C40.0543 98.5038 38.0677 97.0358 36.3916 95.4956C35.2389 94.4 34.2416 93.2856 33.3993 92.1179C32.2903 90.2438 31.4903 88.1592 31.2071 85.8968C30.3962 79.4897 33.9476 73.5596 38.2587 69.1612C40.8579 66.4045 43.8109 64.4051 46.9408 62.7845ZM41.9762 100.387C40.9665 99.7401 39.9564 99.0581 38.9973 98.2891C39.8338 98.9036 40.7044 99.4832 41.6096 100.062C41.6966 100.113 41.7665 100.182 41.871 100.25C41.9059 100.284 41.9412 100.353 41.9762 100.387ZM37.0977 105.085C34.9389 103.688 33.0207 102.15 31.4126 100.506C27.9694 96.9938 26.009 93.0875 25.5671 88.8901C25.0878 84.4163 26.515 80.374 28.5719 77.0172C28.3699 77.5379 28.185 78.0411 28.035 78.5785C24.8119 89.416 31.5244 97.98 40.0725 103.518C40.0383 103.553 40.0044 103.622 39.9702 103.657C39.6117 104.093 39.2532 104.529 38.8772 104.947C38.3629 105.367 37.6374 105.443 37.0977 105.085ZM56.1723 87.2666C56.1894 87.2492 56.2062 87.1971 56.2233 87.1797C58.5324 88.0741 61.0908 88.0151 63.6224 87.0399C61.0595 88.3266 58.397 88.352 56.1723 87.2666ZM54.1154 90.6234C56.0635 91.7114 58.2117 92.1059 60.3712 91.9297C57.8772 93.1811 55.2172 93.4486 52.8058 92.6935C53.2481 91.9976 53.6732 91.3192 54.1154 90.6234ZM45.9741 102.39C47.3817 103.051 48.8063 103.694 50.2815 104.216C56.9468 106.642 63.4632 106.424 68.7799 103.936C68.1957 104.287 67.594 104.621 66.9745 104.904C60.1953 108.081 52.2153 105.598 45.8719 102.529C45.9061 102.494 45.9574 102.442 45.9741 102.39ZM63.0686 110.007C57.3202 112.552 50.1184 111.722 41.7239 107.635C42.3044 106.938 42.9021 106.223 43.4655 105.543C45.2567 106.512 47.0985 107.359 48.8867 108.051C53.835 109.992 59.028 110.53 63.7736 109.638C63.5672 109.743 63.3266 109.884 63.0686 110.007ZM68.4468 103.507C62.6671 106.363 55.2604 105.776 46.4349 101.815C48.4988 99.1149 50.4577 96.3124 52.3123 93.4417C55.0716 94.4009 58.2321 94.0423 61.2229 92.3538C61.3776 92.2659 61.3944 92.2138 61.4111 92.1618C61.41 92.0581 61.374 91.9201 61.3037 91.817C62.9955 91.5588 64.6662 90.9377 66.2128 90.0238C68.1547 88.8814 66.7592 86.0763 64.8959 86.4745C65.2053 86.2986 65.5151 86.1573 65.8416 85.964C65.9963 85.8761 66.0126 85.7895 66.0123 85.7549C66.0279 85.5991 65.9395 85.4098 65.8172 85.2899C65.6949 85.17 65.6257 85.1707 65.471 85.2586C62.6709 86.9971 59.5283 87.4075 56.7336 86.3794C59.3507 82.0318 61.8808 77.6331 64.4283 73.2515C66.8211 73.8857 68.9086 75.0761 70.6564 76.8577C75.236 81.5517 76.7399 89.7331 74.398 97.2251C74.0802 98.2483 73.6584 99.2379 73.1845 100.211C71.7114 101.539 70.167 102.66 68.4468 103.507Z" fill="#C0DBFF"/>
</svg>
