<svg width="93" height="220" viewBox="0 0 93 220" fill="none" xmlns="http://www.w3.org/2000/svg">
<path d="M87.9897 115.434C82.3357 106.982 71.8477 100.757 61.5305 101.3C58.6999 101.112 55.8526 101.39 53.0647 102.375C52.795 102.46 52.5349 102.576 52.2952 102.652C49.736 103.63 47.3233 105.484 45.1907 107.908C44.5502 106.826 43.9096 105.745 43.299 104.653C40.6309 100.097 38.0431 95.4814 35.5057 90.8171C36.8845 82.0747 38.0031 73.4479 38.7988 65.1543L38.8592 64.4101C39.7453 55.3629 42.0938 31.0877 36.6217 17.6014C33.9559 5.99179 28.0526 -2.41436 15.7915 1.25032C15.6717 1.28839 15.5518 1.32647 15.432 1.36455C13.9696 1.43371 12.4144 1.73006 10.7066 2.27264L10.377 2.37735C6.2708 3.78076 3.50088 6.2755 1.89701 9.94864C-3.73844 22.9434 7.09084 46.8546 11.7157 57.051L11.9182 57.481C16.331 67.2175 21.4651 77.252 27.6498 88.2051C27.8728 88.5956 27.946 89.0337 27.8804 89.45C26.8141 97.2034 25.4439 105.35 23.7437 114.326C22.5914 120.459 21.0997 132.895 25.0781 144.484C26.1931 148.512 27.8379 152.34 30.1637 155.819C31.7405 159.536 33.9355 163.123 37.0309 166.324C43.3399 172.789 51.5954 174.582 61.6393 171.622C64.4447 170.796 67.3254 169.585 70.2403 168.065C70.3506 167.997 70.4705 167.959 70.5903 167.921C70.9798 167.798 71.4468 167.814 71.8225 167.958C72.0893 168.071 72.3357 168.224 72.5316 168.425C72.9434 169.513 73.3552 170.602 73.756 171.76C76.937 180.734 79.9896 190.343 80.0195 199.989C80.0141 201.737 79.8751 203.791 79.1835 205.56C78.6846 206.377 78.0672 207.134 77.243 207.758C76.6599 208.207 76.0089 208.546 75.2898 208.774C73.6813 209.318 71.9017 209.323 70.1659 209.051C68.2641 208.568 66.4061 207.807 65.0326 207.222C64.4991 206.996 63.9626 206.968 63.5037 207.081C63.4642 207.061 63.3948 207.05 63.3553 207.029C63.1674 206.957 63.0381 206.965 62.9782 206.984C62.6785 207.08 62.4945 207.435 62.4521 207.613C61.1742 208.678 60.8649 210.819 62.7624 211.601C68.0398 213.78 74.4324 215.835 79.7381 212.601C80.4805 212.134 81.1154 211.537 81.6809 210.929C81.2613 213.138 80.29 215.688 78.0314 217.196C77.4388 217.615 76.7483 217.933 76.0197 218.132C72.0062 219.308 67.0965 217.144 64.1523 215.872C63.9644 215.799 63.8351 215.808 63.7751 215.827C63.4156 215.941 63.2301 216.395 63.2287 216.494C63.2382 216.524 63.2777 216.545 63.3961 216.606C67.5748 218.442 72.4018 220.138 76.5351 218.924C77.2243 218.705 77.9243 218.416 78.536 218.057C80.932 216.67 82.3556 213.779 82.8681 209.266C84.4795 206.448 84.9096 202.818 84.984 199.73C85.2254 187.822 80.8309 175.444 76.3198 164.256C77.7257 163.282 79.1425 162.238 80.4804 161.154C88.7406 154.345 92.8264 145.402 92.2976 136.573C93.671 129.579 92.4849 122.212 87.9897 115.434ZM80.6298 114.279C82.2571 115.871 83.6133 117.648 84.7489 119.561C78.3352 112.767 68.1839 108.018 58.4396 110.883C58.1699 110.968 57.9003 111.054 57.6606 111.13C55.013 112.037 52.4723 113.8 50.2008 116.202C49.7058 115.371 49.1808 114.549 48.6953 113.748C55.9457 102.514 71.5801 105.522 80.6298 114.279ZM52.1172 103.961C49.8315 105.28 47.747 107.129 45.9658 109.309C45.8393 109.119 45.7033 108.899 45.6068 108.699C47.377 106.587 49.5771 104.999 52.1172 103.961ZM49.0784 124.402C50.2045 126.285 51.3305 128.168 52.4566 130.051C53.5037 131.894 54.5508 133.736 55.6279 135.569L55.6074 135.608C55.3715 136.112 54.9587 136.473 54.4493 136.635L54.4194 136.645C53.9823 136.619 53.5752 136.583 53.1191 136.498C47.9116 135.681 45.6947 132.233 45.1571 128.152C45.4125 126.984 45.6951 126.004 45.9039 125.312C46.1018 124.689 46.6059 124.199 47.2446 124.029C47.3645 123.991 47.4938 123.983 47.6137 123.945C48.191 123.893 48.6852 124.099 49.0784 124.402ZM58.8876 141.157C59.1106 141.547 59.3241 141.908 59.5471 142.298C59.8967 142.879 59.8961 143.605 59.5893 144.196C59.3439 144.67 58.9011 145.041 58.3823 145.173C58.2624 145.211 58.1031 145.229 57.9737 145.237C56.7496 145.329 55.4779 145.272 54.1886 145.055C50.6884 144.421 48.0781 142.746 46.457 140.031C46.166 139.53 45.9444 139.041 45.7133 138.521C49.3998 141.403 54.3596 142.167 58.8876 141.157ZM40.7847 119.062C40.9336 118.389 41.0716 117.785 41.1876 117.319C41.2818 116.993 41.455 116.707 41.6771 116.472C41.3565 117.332 41.0359 118.191 40.7847 119.062ZM46.1178 119.444C46.3123 119.745 46.5163 120.075 46.6808 120.385C46.686 120.713 46.5824 121.01 46.4487 121.316C45.9892 122.154 45.5692 123.012 45.1982 123.921C45.3695 122.384 45.6892 120.898 46.1178 119.444ZM38.3031 29.2273C38.6344 32.4504 38.7602 35.4421 38.8376 37.6584L38.8765 38.404C39.4729 53.571 38.312 69.9555 35.3099 88.5396C35.2347 88.926 35.0806 89.2715 34.8081 89.5558C34.6721 89.3354 34.5565 89.0755 34.4205 88.8551C35.8655 78.9712 37.0232 69.0138 37.7534 59.0604C38.2041 53.3151 39.2259 41.0611 38.3031 29.2273ZM33.3284 32.2577C34.3051 48.6221 33.1479 65.4337 30.8308 82.0207C30.4243 81.2601 30.0477 80.49 29.6411 79.7294C30.4363 72.161 31.0108 64.7286 31.4026 57.552L31.4331 56.8173C31.934 47.5959 33.2496 22.5613 26.8268 9.50896C27.4816 9.5975 28.0861 9.735 28.6496 9.95141C32.5746 16.2838 33.0405 27.4061 33.3284 32.2577ZM27.8132 8.66832C27.3176 8.56212 26.7921 8.46545 26.2856 8.42863C25.8301 7.6177 25.3541 6.84622 24.8072 6.16316C25.9424 6.72522 26.9439 7.59338 27.8132 8.66832ZM25.7948 9.37547C29.0525 15.7881 29.8343 24.9975 30.2582 30.0695L30.3271 30.8056C31.5394 45.3156 31.1632 61.0553 29.2169 78.8097C26.2392 72.9672 23.3719 67.0567 20.7143 61.0795C17.5849 54.033 14.4504 46.6585 12.2038 39.0679C11.4982 35.6012 11.0119 32.0978 10.8443 28.5591C10.3555 19.0259 14.2262 11.8974 20.8858 9.91348C22.3635 9.47698 23.9866 9.29084 25.6859 9.34416C25.7253 9.36458 25.7553 9.35506 25.7948 9.37547ZM21.4787 5.34225C22.0751 5.35051 22.6605 5.42815 23.1955 5.55476C23.9493 6.36982 24.6117 7.31276 25.2427 8.36453C23.7912 8.3643 22.247 8.59127 20.5706 9.02501L20.211 9.13924C16.0478 10.3631 13.2003 12.7177 11.4386 16.3091C10.0041 19.2694 9.43504 22.8774 9.4581 26.7916C9.25891 25.4378 9.0992 24.1045 8.99942 22.7521C8.41594 14.2706 11.5187 5.24412 21.4787 5.34225ZM14.4986 59.1657C17.2104 65.5211 20.132 71.8098 23.2143 77.9815C20.0487 72.0669 17.1771 66.4544 14.5722 60.9548C8.81326 48.746 3.09574 35.7332 1.83917 22.2259C0.962325 12.7171 4.47777 5.40493 11.0518 3.15158C11.2915 3.07543 11.5407 3.02921 11.7804 2.95306C-5.40328 12.927 9.12395 46.5053 14.4986 59.1657ZM33.0812 97.6179C33.2363 97.8982 33.4213 98.169 33.5763 98.4493C32.3817 104.761 30.984 111.367 29.3505 118.477C30.1464 113.61 31.1806 108.767 32.046 103.912C32.4042 101.82 32.723 99.709 33.0812 97.6179ZM25.7153 108.592C26.0735 106.501 26.4318 104.41 26.7505 102.298C27.1117 100.009 27.4428 97.7286 27.744 95.458C27.8439 94.7342 28.3195 94.1547 28.9991 93.9058C27.7726 101.051 26.3883 108.115 24.8964 115.048C24.5235 116.781 24.2294 118.555 23.9749 120.349C24.3998 116.392 25.0426 112.497 25.7153 108.592ZM28.2036 130.441C28.7912 125.542 29.8254 120.699 30.8787 115.915C31.3063 113.835 31.7735 111.775 32.1712 109.705C32.6112 107.456 33.0418 105.177 33.4818 102.928C33.6117 102.195 34.1472 101.596 34.8758 101.398C34.9657 101.369 35.0556 101.341 35.155 101.342C35.2149 101.323 35.2544 101.343 35.3238 101.354C36.9449 104.069 38.6734 106.914 40.5 109.86C40.8685 110.5 41.2275 111.111 41.626 111.743C41.8271 112.272 41.809 112.838 41.5731 113.341C38.891 118.708 37.8976 125.549 40.5257 130.81C41.1886 133.104 42.3307 135.246 44.0641 137.068C44.7174 139.332 45.94 141.415 47.8736 143.14C50.8767 145.844 55.5734 146.922 60.1204 145.972C60.958 145.805 61.8373 146.184 62.2738 146.936C64.436 150.73 66.2649 154.203 67.9263 157.563C67.7846 157.74 67.6333 157.887 67.4127 158.023C64.6038 159.772 61.7407 161.143 58.9828 162.118C57.0448 162.767 55.1791 163.228 53.3462 163.481C50.5507 163.611 47.7025 163.263 44.9637 162.222C37.202 159.284 32.6094 151.68 30.213 144.137C28.6491 139.526 28.1581 134.97 28.2036 130.441ZM67.8996 158.725C66.5565 159.481 65.174 160.217 63.7234 160.843C64.9248 160.263 66.1071 159.624 67.3099 158.946C67.4202 158.878 67.5401 158.839 67.6804 158.762C67.7403 158.743 67.8397 158.744 67.8996 158.725ZM70.2941 167.093C67.4077 168.702 64.5066 169.953 61.6712 170.788C55.6108 172.581 49.9957 172.454 44.9647 170.428C39.5974 168.277 35.8682 164.222 33.2966 159.865C33.7659 160.408 34.2258 160.921 34.7456 161.415C45.1068 171.602 58.8716 169.14 70.3067 162.772C70.3257 162.832 70.3842 162.912 70.4033 162.972C70.6819 163.641 70.9606 164.311 71.2092 164.99C71.3761 165.826 71.0256 166.696 70.2941 167.093ZM61.5555 134.707C61.546 134.677 61.497 134.627 61.4875 134.597C63.8936 132.514 65.3676 129.575 65.7853 126.113C65.7024 129.798 64.1275 132.835 61.5555 134.707ZM64.1271 139.064C66.5356 137.508 68.2773 135.307 69.3779 132.749C69.2964 136.334 67.9978 139.515 65.6883 141.797C65.1647 140.876 64.6507 139.985 64.1271 139.064ZM72.5804 155.393C74.1785 154.193 75.767 152.963 77.248 151.603C84.0168 145.498 87.6944 137.97 88.0716 130.435C88.1186 131.31 88.1356 132.194 88.0833 133.068C87.6066 142.677 79.9817 150.24 72.677 155.593C72.658 155.533 72.6294 155.443 72.5804 155.393ZM91.5241 140.576C90.9505 148.634 85.6702 156.309 75.9746 163.377C75.5329 162.298 75.0816 161.189 74.6494 160.14C76.8276 158.69 78.8984 157.109 80.7608 155.496C85.9449 151.048 89.6838 145.477 91.5289 139.552C91.5246 139.85 91.5393 140.208 91.5241 140.576ZM87.3839 130.555C87.1451 138.836 82.0183 146.891 72.2053 154.523C70.3836 150.554 68.3821 146.643 66.2404 142.808C68.9913 140.254 70.4877 136.45 70.3724 132.038C70.3657 131.809 70.3168 131.759 70.2678 131.709C70.1494 131.647 69.971 131.605 69.8117 131.623C70.5376 129.547 70.8388 127.276 70.7328 124.97C70.6056 122.078 66.5808 121.972 65.9105 124.327C65.8973 123.87 65.9234 123.433 65.9006 122.946C65.894 122.718 65.8055 122.647 65.7661 122.626C65.5987 122.515 65.3304 122.501 65.1207 122.568C64.911 122.634 64.8701 122.713 64.8767 122.942C65.1637 127.168 63.7367 130.982 60.8864 133.536C57.5273 127.946 54.0579 122.425 50.6184 116.894C52.7795 114.559 55.3882 112.907 58.4633 111.996C66.5502 109.624 76.7435 112.845 83.8377 120.016C84.8078 120.993 85.6771 122.068 86.496 123.192C87.1164 125.664 87.4592 128.092 87.3839 130.555Z" fill="#C0DBFF"/>
</svg>
