<svg width="95" height="99" viewBox="0 0 95 99" fill="none" xmlns="http://www.w3.org/2000/svg">
<path d="M68.7618 90.048C68.8172 89.954 68.8725 89.86 68.9119 89.7517C75.0452 79.6807 79.6422 68.7233 83.7079 58.2954C88.8863 45.0165 92.3947 34.1186 94.7614 23.9505C94.7723 23.8741 94.7032 23.7262 94.6091 23.6707L93.2981 23.0146C93.2439 22.593 92.9638 22.1989 92.5587 22.0087C84.527 18.0962 76.4811 14.1996 68.4351 10.3029L50.2106 1.00382C50.1325 0.962601 50.072 0.96591 50.0132 0.999455C49.9545 1.033 49.8529 1.11438 49.8152 1.25291C49.801 1.26886 49.817 1.28315 49.8027 1.29909C49.101 0.958392 48.3992 0.61769 47.6975 0.276988C46.8857 -0.133507 46.0202 0.383941 45.8245 1.21351C45.7366 1.53676 45.679 1.85836 45.5911 2.18161L43.2406 1.11228C43.1624 1.07106 43.1019 1.07437 43.0432 1.10792C42.9844 1.14146 42.8829 1.22284 42.8452 1.36138C39.5044 16.8296 36.279 28.4398 32.3427 39.0122C29.632 46.318 26.2663 53.8416 22.0152 62.0657C20.5855 60.3849 18.6806 58.8817 16.3729 57.7645C9.91692 54.6301 2.92688 55.7253 0.754233 60.2115C-1.40415 64.6816 2.0696 70.8605 8.5398 73.979C14.9957 77.1134 21.9858 76.0182 24.1442 71.548C25.0142 69.7717 24.9584 67.7124 24.207 65.6912C24.4569 65.2833 24.6766 64.877 24.8963 64.4707C30.4322 55.0997 34.8158 46.5347 38.4131 38.0128C41.1289 31.6014 43.3843 25.0939 45.326 18.9372C51.8835 20.3829 58.2367 23.3107 64.2791 26.1038C71.3021 29.3437 78.3297 32.9321 84.7188 37.2985C83.0887 43.3321 81.0894 49.8104 78.567 57.2271C75.5253 66.1887 71.7768 76.3263 66.8039 86.0002C65.3428 84.033 63.2091 82.2391 60.5728 80.9427C54.1169 77.8083 47.1268 78.9035 44.9542 83.3897C42.7958 87.8598 46.2695 94.0387 52.7397 97.1572C59.1957 100.292 66.1857 99.1964 68.3441 94.7262C69.0356 93.2781 69.1263 91.6657 68.7618 90.048ZM49.0027 4.31502C47.8337 8.57944 46.7096 12.5684 45.5702 16.2853C45.2787 16.2255 45.0031 16.1799 44.7116 16.12C45.8607 12.0387 46.8872 7.93369 47.8977 3.81442L49.0027 4.31502ZM43.0443 3.00337C43.1179 2.69606 43.3158 2.4426 43.5954 2.29082C43.8909 2.15334 44.2236 2.13514 44.5042 2.27142L45.4387 2.70553C44.2434 7.57795 42.9859 12.4234 41.6056 17.2453C40.9923 17.1272 40.3488 17.0108 39.7212 16.9087C41.0307 11.9087 42.1279 7.17813 43.0443 3.00337ZM22.7175 62.9522C22.6022 62.7917 22.4887 62.6615 22.3735 62.501C26.721 54.1048 30.2082 46.3168 33.0622 38.5937C35.721 31.4424 37.8429 24.1841 39.5991 17.4309C40.241 17.5171 40.8543 17.6352 41.4818 17.7373C39.4672 24.7472 37.1895 31.6654 34.4959 38.4698C31.1513 46.9021 27.1067 55.0239 22.7175 62.9522ZM37.6617 38.4027C36.3922 41.4292 34.9733 44.4941 33.4511 47.6102C34.7736 44.7173 36.0197 41.8135 37.2019 38.8525C39.8167 32.2646 42.0282 25.5169 43.9927 18.6918C44.2682 18.7373 44.5136 18.7846 44.7891 18.8301C42.4983 26.0523 40.1898 32.4262 37.6617 38.4027ZM66.0728 24.0343C59.7624 21.0587 53.0041 17.9408 46.0768 16.3941C47.3846 12.1676 48.5086 8.17857 49.486 4.54637L65.9413 12.0619C73.3015 15.6322 80.6617 19.2024 88.0362 22.7566C88.0413 22.8473 88.0464 22.9381 88.0213 23.0304C87.3087 26.7846 86.4322 30.5932 85.4149 34.5916C79.3167 30.5429 72.7102 27.1589 66.0728 24.0343ZM88.5513 23.0166C89.1909 23.3303 89.8145 23.6298 90.454 23.9436C89.5753 27.9798 88.5597 32.0084 87.4357 35.9974C86.9296 35.6308 86.3933 35.2659 85.873 34.9153C86.9423 30.7625 87.8421 26.8312 88.5513 23.0166ZM67.4491 86.9505C67.3482 86.7741 67.2489 86.6279 67.1479 86.4514C72.1385 76.8221 75.9139 66.6224 79.2294 56.8725C81.6086 49.8729 83.5702 43.5332 85.161 37.608C85.4611 37.819 85.7914 38.0284 86.0915 38.2394C86.2814 38.3807 86.5125 38.4438 86.7116 38.4784C84.7745 44.9837 82.5904 51.4114 80.2803 57.7551C76.6407 67.6744 72.5954 77.6615 67.4491 86.9505ZM82.9275 58.1713C87.052 46.9062 90.7806 35.3443 93.2558 23.6083L93.4424 23.6891C93.8794 23.9078 94.1042 24.3959 93.9804 24.8879C91.6051 34.9049 88.2045 45.2964 83.0136 58.6215C81.6774 62.0762 80.2002 65.7206 78.5895 69.4178C80.122 65.6794 81.5621 61.9157 82.9275 58.1713Z" fill="#91B0D9"/>
</svg>
